<svg width="115" height="115" viewBox="0 0 115 115" fill="none" xmlns="http://www.w3.org/2000/svg">
<circle r="57.5" transform="matrix(-1 0 0 1 57.5 57.5)" fill="#653CBC"/>
<path d="M79.1323 40.8647L66.6353 28.3677C66.409 28.1407 66.0962 28 65.75 28H39.5C36.7437 28 34.5 30.2424 34.5 33V83.0001C34.5 85.7576 36.7437 88 39.5 88H74.5001C77.2563 88 79.5 85.7576 79.5 83V41.75C79.5 41.4038 79.3593 41.091 79.1323 40.8647ZM43.25 40.5H58.25C58.941 40.5 59.5001 41.0591 59.5001 41.7501C59.5001 42.441 58.941 43.0001 58.25 43.0001H43.25C42.5591 43.0001 42 42.441 42 41.7501C42 41.0591 42.5591 40.5 43.25 40.5ZM61.6264 75.1411C56.1846 80.5 54.9175 80.5 54.5 80.5C52.9473 80.5 52.3907 78.7178 51.8145 76.8086C50.9428 78.5774 49.9395 80.5 48.25 80.5C47.3808 80.5 46.3407 79.9275 45.3618 79.0559C44.8955 79.5197 44.4315 79.9263 43.9995 80.2498C43.7748 80.4183 43.5111 80.5 43.2499 80.5C42.8715 80.5 42.4955 80.3279 42.2489 79.9995C41.8363 79.4478 41.9486 78.664 42.5004 78.2502C42.8959 77.9523 43.2988 77.5935 43.6943 77.198C42.7007 75.8271 42 74.2647 42 73C42 70.1472 44.2754 68 45.75 68C47.2002 68 49.5 69.0181 49.5 71.75C49.5 73.3417 48.394 75.4011 47.017 77.1796C47.5273 77.6557 47.9912 77.9718 48.2621 77.9999C48.538 77.8059 49.2973 76.2604 49.6635 75.5182C50.4105 74.0021 50.9037 72.9999 52 72.9999C53.2818 72.9999 53.6796 74.3293 54.1875 76.0125C54.3364 76.5118 54.583 77.3345 54.8003 77.8265C55.7182 77.2063 58.0351 75.1677 59.8736 73.3587C60.3667 72.8765 61.1577 72.8789 61.6411 73.3734C62.1245 73.8654 62.1197 74.6564 61.6264 75.1411ZM70.75 65.5H53.25C52.5591 65.5 52 64.9409 52 64.25C52 63.559 52.5591 62.9999 53.25 62.9999H70.75C71.4409 62.9999 72 63.559 72 64.25C72 64.9409 71.4409 65.5 70.75 65.5ZM70.75 58H43.25C42.5591 58 42 57.4409 42 56.75C42 56.059 42.5591 55.4999 43.25 55.4999H70.7501C71.441 55.4999 72.0001 56.059 72.0001 56.75C72 57.4409 71.4409 58 70.75 58ZM70.75 50.5H43.25C42.5591 50.5 42 49.9409 42 49.25C42 48.559 42.5591 47.9999 43.25 47.9999H70.7501C71.441 47.9999 72.0001 48.559 72.0001 49.25C72 49.9409 71.4409 50.5 70.75 50.5ZM69.5 40.5C68.1206 40.5 67.0001 39.3782 67.0001 38.0001V32.2676L75.2325 40.5H69.5Z" fill="white"/>
<path d="M45.75 70.5C45.6181 70.583 44.4999 71.4754 44.4999 73C44.4999 73.6396 44.8612 74.4429 45.3691 75.2168C46.3262 73.8923 47 72.5472 47 71.75C47 70.5598 45.9575 70.5 45.75 70.5Z" fill="white"/>
</svg>
