<svg width="115" height="115" viewBox="0 0 115 115" fill="none" xmlns="http://www.w3.org/2000/svg">
<circle r="57.5" transform="matrix(-1 0 0 1 57.5 57.5)" fill="#653CBC"/>
<g clip-path="url(#clip0)">
<path d="M81.9166 77.8336H80.8333V46.4169C80.8333 45.8189 80.3479 45.3335 79.7499 45.3335H73.2499C72.6519 45.3335 72.1665 45.8189 72.1665 46.4169V77.8335H67.8332V59.4169C67.8332 58.8189 67.3478 58.3335 66.7498 58.3335H60.2498C59.6518 58.3335 59.1664 58.8189 59.1664 59.4169V77.8335H54.8331V55.0835C54.8331 54.4855 54.3477 54.0001 53.7497 54.0001H47.2497C46.6517 54.0001 46.1663 54.4855 46.1663 55.0835V77.8335H41.833V65.9169C41.833 65.3189 41.3476 64.8335 40.7496 64.8335H34.25C33.652 64.8335 33.1666 65.3189 33.1666 65.9169V77.8335H32.0834C31.4854 77.8336 31 78.3189 31 78.9169C31 79.5149 31.4854 80.0002 32.0834 80.0002H34.25H40.75H47.25H53.75H60.25H66.75H73.25H79.75H81.9166C82.5146 80.0002 83 79.5149 83 78.9169C83 78.3189 82.5146 77.8336 81.9166 77.8336Z" fill="white"/>
<path d="M76.5 28C74.1101 28 72.1666 29.9435 72.1666 32.3334C72.1666 33.135 72.4006 33.876 72.7798 34.5217L65.6883 41.6132C65.0426 41.234 64.3016 41 63.5 41C62.1415 41 60.9411 41.6414 60.146 42.6229L54.8225 41.104C54.8225 41.0694 54.8334 41.0369 54.8334 41C54.8334 38.6101 52.8899 36.6666 50.5 36.6666C48.1101 36.6666 46.1666 38.6101 46.1666 41C46.1666 41.6305 46.3075 42.2241 46.5501 42.7636L39.7793 48.1651C39.1164 47.7491 38.3385 47.5 37.5 47.5C35.1101 47.5 33.1666 49.4435 33.1666 51.8334C33.1666 54.2232 35.1101 56.1667 37.5 56.1667C39.8899 56.1667 41.8334 54.2232 41.8334 51.8334C41.8334 51.0729 41.6189 50.3665 41.2722 49.7447L47.9087 44.4516C48.6346 44.9976 49.5251 45.3335 50.5001 45.3335C52.0882 45.3335 53.4662 44.4646 54.2202 43.1863L59.2404 44.6185C59.1992 44.8525 59.1667 45.0886 59.1667 45.3335C59.1667 47.7233 61.1102 49.6668 63.5001 49.6668C65.89 49.6668 67.8335 47.7233 67.8335 45.3335C67.8335 44.5318 67.5995 43.7908 67.2203 43.1451L74.314 36.0515C74.9575 36.4328 75.6985 36.6668 76.5001 36.6668C78.89 36.6668 80.8335 34.7233 80.8335 32.3335C80.8334 29.9435 78.8899 28 76.5 28Z" fill="white"/>
</g>
<defs>
<clipPath id="clip0">
<rect width="52" height="52" fill="white" transform="translate(31 28)"/>
</clipPath>
</defs>
</svg>
