<svg width="115" height="115" viewBox="0 0 115 115" fill="none" xmlns="http://www.w3.org/2000/svg">
<circle r="57.5" transform="matrix(-1 0 0 1 57.5 57.5)" fill="#653CBC"/>
<path d="M56.6347 84.0105C57.4187 84.4291 58.4027 84.4265 59.1867 84.0078C80.552 72.5305 82.0693 50.1065 82.0507 43.7305C82.0486 43.218 81.8972 42.7173 81.6149 42.2896C81.3326 41.8619 80.9317 41.5258 80.4613 41.3225L58.9947 31.8131C58.653 31.6625 58.2837 31.585 57.9104 31.5855C57.537 31.5859 57.1679 31.6644 56.8267 31.8158L35.5093 41.3251C35.0459 41.5286 34.6506 41.8609 34.3707 42.2827C34.0908 42.7044 33.9381 43.1977 33.9307 43.7038C33.84 50.0478 35.1173 72.5198 56.6347 84.0105ZM49.1307 53.4478L55.2453 59.5625L66.6933 48.1145L70.464 51.8851L55.2453 67.1038L45.36 57.2185L49.1307 53.4478Z" fill="white"/>
</svg>
