<svg width="115" height="115" viewBox="0 0 115 115" fill="none" xmlns="http://www.w3.org/2000/svg">
<circle r="57.5" transform="matrix(-1 0 0 1 57.5 57.5)" fill="#653CBC"/>
<g clip-path="url(#clip0)">
<path d="M88.116 37.4462C84.237 35.8192 80.355 35.2002 76.475 35.2002C64.158 35.1992 51.842 41.4342 39.525 41.4342C36.436 41.4342 33.349 41.0422 30.26 40.0622C29.913 39.9522 29.565 39.9002 29.225 39.9002C27.504 39.9002 26 41.2322 26 43.0812V74.8072C26 76.0702 26.723 77.2672 27.884 77.7532C31.763 79.3812 35.645 80.0002 39.525 80.0002C51.842 80.0002 64.159 73.7652 76.476 73.7652C79.565 73.7652 82.652 74.1572 85.741 75.1372C86.088 75.2472 86.436 75.2992 86.776 75.2992C88.497 75.2992 90.001 73.9672 90.001 72.1182V40.3932C90 39.1292 89.277 37.9332 88.116 37.4462ZM30.8 45.2222C32.812 45.7262 34.912 45.9792 37.072 46.1152C36.484 49.0542 33.9 51.2692 30.8 51.2692V45.2222ZM30.8 73.7222V68.9442C34.237 68.9442 37.018 71.6712 37.171 75.0842C34.918 74.9032 32.812 74.4532 30.8 73.7222ZM58 67.2002C53.581 67.2002 50 62.9012 50 57.6002C50 52.2982 53.582 48.0002 58 48.0002C62.418 48.0002 66 52.2982 66 57.6002C66 62.9032 62.417 67.2002 58 67.2002ZM85.2 69.9782C83.448 69.5392 81.629 69.2932 79.768 69.1342C80.355 66.5262 82.518 64.5462 85.2 64.2062V69.9782ZM85.2 46.3672C82.111 45.9762 79.714 43.3972 79.619 40.2122C81.573 40.4292 83.428 40.8352 85.2 41.4782V46.3672Z" fill="white"/>
</g>
<defs>
<clipPath id="clip0">
<rect width="64" height="51.2" fill="white" transform="translate(26 32)"/>
</clipPath>
</defs>
</svg>
