<svg width="115" height="115" viewBox="0 0 115 115" fill="none" xmlns="http://www.w3.org/2000/svg">
<circle r="57.5" transform="matrix(-1 0 0 1 57.5 57.5)" fill="#653CBC"/>
<path d="M83.313 40.0368C77.7597 35.1352 69.0868 32.69 57.2888 32.7042C45.5107 32.7212 37.0985 35.1805 32.0523 40.0822C29.916 42.159 29.1368 45.236 30.0095 48.1572L30.8878 51.0953C31.7038 53.8352 34.4607 55.6655 37.3365 55.3765L43.1023 54.7985C45.5758 54.5492 47.5308 52.784 47.9502 50.4153L49.058 44.1678C51.8597 42.9118 54.885 42.2307 57.9547 42.1647C61.145 42.0712 64.0633 42.567 66.7097 43.6522L68.5003 50.3247C69.1407 52.7245 71.294 54.518 73.8213 54.7617L79.6212 55.3227C82.5338 55.606 85.1036 53.7558 85.6278 51.0047L86.1888 48.0665C86.7413 45.1538 85.6505 42.0995 83.313 40.0368Z" fill="white"/>
<path d="M58 86.3337C53.867 86.3337 49.9033 84.6919 46.9809 81.7694C44.0584 78.847 42.4166 74.8833 42.4166 70.7503C42.4166 66.6174 44.0584 62.6537 46.9809 59.7312C49.9033 56.8088 53.867 55.167 58 55.167C62.1329 55.167 66.0966 56.8088 69.019 59.7312C71.9415 62.6537 73.5833 66.6174 73.5833 70.7503C73.5833 74.8833 71.9415 78.847 69.019 81.7694C66.0966 84.6919 62.1329 86.3337 58 86.3337ZM58 82.0837C60.0599 82.0839 62.0809 81.5227 63.8457 80.4604C65.6106 79.3982 67.0526 77.875 68.0167 76.0546C68.9808 74.2342 69.4305 72.1855 69.3175 70.1287C69.2045 68.0719 68.5331 66.0848 67.3755 64.381L51.6306 80.1287C53.444 81.364 55.637 82.0865 58 82.0865V82.0837ZM48.6245 77.1253L64.3693 61.3805C62.188 59.897 59.5575 59.221 56.9312 59.4688C54.305 59.7166 51.8474 60.8728 49.9821 62.7381C48.1168 64.6034 46.9606 67.061 46.7128 69.6873C46.4649 72.3136 47.141 74.944 48.6245 77.1253Z" fill="white"/>
</svg>
