<svg width="320" height="242" viewBox="0 0 320 242" fill="none" xmlns="http://www.w3.org/2000/svg">
<path d="M13.365 32.4109C13.6635 29.895 15.7967 28 18.3302 28H67.2461C70.241 28 72.5641 30.615 72.2112 33.5891L66.635 80.5891C66.3365 83.105 64.2033 85 61.6698 85H12.7539C9.75901 85 7.43591 82.385 7.78877 79.4109L13.365 32.4109Z" fill="#653CBC" stroke="#653CBC" stroke-width="2"/>
<g filter="url(#filter0_d)">
<path d="M19.557 41.5201C19.8072 38.4025 22.4102 36 25.5378 36H307.854C311.357 36 314.115 38.9882 313.834 42.4799L301.797 192.48C301.547 195.598 298.944 198 295.817 198H13.5008C9.99784 198 7.2398 195.012 7.51999 191.52L19.557 41.5201Z" fill="#261E3B"/>
</g>
<defs>
<filter id="filter0_d" x="-32.4996" y="0" width="386.354" height="242" filterUnits="userSpaceOnUse" color-interpolation-filters="sRGB">
<feFlood flood-opacity="0" result="BackgroundImageFix"/>
<feColorMatrix in="SourceAlpha" type="matrix" values="0 0 0 0 0 0 0 0 0 0 0 0 0 0 0 0 0 0 127 0"/>
<feOffset dy="4"/>
<feGaussianBlur stdDeviation="20"/>
<feColorMatrix type="matrix" values="0 0 0 0 0.396078 0 0 0 0 0.235294 0 0 0 0 0.737255 0 0 0 0.1 0"/>
<feBlend mode="normal" in2="BackgroundImageFix" result="effect1_dropShadow"/>
<feBlend mode="normal" in="SourceGraphic" in2="effect1_dropShadow" result="shape"/>
</filter>
</defs>
</svg>
