<svg width="28" height="28" viewBox="0 0 28 28" fill="none" xmlns="http://www.w3.org/2000/svg">
<path d="M24.625 27.8125H24.4444C3.56624 26.6119 0.601863 8.99563 0.187488 3.61938C0.154099 3.20137 0.20352 2.78088 0.332918 2.382C0.462316 1.98312 0.669148 1.6137 0.941563 1.29489C1.21398 0.976088 1.54662 0.714168 1.92044 0.524142C2.29425 0.334115 2.70189 0.219717 3.11999 0.187501H8.97436C9.39996 0.187089 9.81587 0.31448 10.1682 0.553173C10.5206 0.791866 10.7931 1.13086 10.9506 1.52625L12.5656 5.5C12.7211 5.88627 12.7597 6.30971 12.6766 6.71772C12.5935 7.12574 12.3923 7.50034 12.0981 7.795L9.83499 10.0794C10.1885 12.0883 11.1506 13.9401 12.591 15.3844C14.0314 16.8286 15.8808 17.7956 17.8887 18.1544L20.1944 15.87C20.4935 15.579 20.8716 15.3826 21.2816 15.3051C21.6916 15.2276 22.1154 15.2726 22.5 15.4344L26.5056 17.0388C26.895 17.2012 27.2273 17.4759 27.46 17.8278C27.6928 18.1798 27.8155 18.5931 27.8125 19.015V24.625C27.8125 25.4704 27.4767 26.2811 26.8789 26.8789C26.2811 27.4767 25.4704 27.8125 24.625 27.8125ZM3.37499 2.3125C3.0932 2.3125 2.82294 2.42444 2.62369 2.6237C2.42443 2.82296 2.31249 3.09321 2.31249 3.375V3.46C2.80124 9.75 5.93561 24.625 24.5612 25.6875C24.7008 25.6961 24.8407 25.6771 24.973 25.6315C25.1052 25.586 25.2271 25.5148 25.3317 25.422C25.4364 25.3292 25.5217 25.2167 25.5827 25.0908C25.6438 24.965 25.6794 24.8284 25.6875 24.6887V19.015L21.6819 17.4106L18.6325 20.4387L18.1225 20.375C8.87874 19.2169 7.62499 9.97313 7.62499 9.8775L7.56124 9.3675L10.5787 6.31813L8.98499 2.3125H3.37499Z" fill="#A1A1A1"/>
</svg>
