<svg width="30" height="30" viewBox="0 0 30 30" fill="none" xmlns="http://www.w3.org/2000/svg">
<path fill-rule="evenodd" clip-rule="evenodd" d="M25.1381 4.91896C23.8213 3.59353 22.2546 2.54256 20.5288 1.82695C18.8029 1.11133 16.9522 0.745297 15.0839 0.750046C7.24958 0.750046 0.871917 7.12613 0.86875 14.9636C0.86875 17.4685 1.52267 19.9131 2.76558 22.0696L0.75 29.4337L8.28508 27.4561C10.3694 28.5907 12.7045 29.1857 15.0776 29.1867H15.0839C22.9167 29.1867 29.2943 22.8106 29.2975 14.9731C29.3029 13.1056 28.9381 11.2554 28.2241 9.52972C27.5102 7.804 26.4613 6.23688 25.1381 4.91896ZM15.0839 26.788H15.0792C12.9631 26.7882 10.8859 26.2188 9.06567 25.1397L8.635 24.8832L4.16367 26.0565L5.35592 21.6975L5.07567 21.251C3.89258 19.3675 3.26629 17.1879 3.26908 14.9636C3.27225 8.44979 8.57167 3.15038 15.0887 3.15038C16.6407 3.14693 18.1781 3.45134 19.6117 4.04599C21.0453 4.64064 22.3468 5.51373 23.4408 6.61471C24.5406 7.71044 25.4123 9.01329 26.0056 10.448C26.5988 11.8826 26.9019 13.4206 26.8972 14.9731C26.894 21.487 21.5946 26.788 15.0839 26.788ZM21.5645 17.9387C21.2083 17.7598 19.4634 16.9016 19.1373 16.7829C18.8127 16.6641 18.5768 16.6055 18.3393 16.9602C18.1018 17.3149 17.4209 18.1145 17.2135 18.352C17.0061 18.5895 16.7987 18.618 16.444 18.4406C16.0893 18.2633 14.9446 17.888 13.5877 16.6784C12.5316 15.7363 11.8191 14.5741 11.6117 14.2179C11.4043 13.8616 11.5895 13.67 11.7684 13.4927C11.9283 13.3344 12.1231 13.0779 12.3004 12.8705C12.4778 12.663 12.5363 12.5158 12.6551 12.2783C12.7738 12.0408 12.7153 11.8334 12.625 11.656C12.5363 11.4771 11.8254 9.72913 11.5293 9.01821C11.2428 8.32946 10.9498 8.42129 10.7313 8.41179C10.505 8.40254 10.2786 8.39831 10.0521 8.39913C9.87199 8.40372 9.69478 8.44547 9.53158 8.52175C9.36838 8.59804 9.22269 8.70723 9.10367 8.84246C8.7775 9.19871 7.86075 10.0569 7.86075 11.8049C7.86075 13.5529 9.13375 15.2423 9.31108 15.4798C9.48842 15.7173 11.8159 19.3035 15.3784 20.8425C16.2271 21.2083 16.8889 21.4268 17.4035 21.5915C18.2538 21.8622 19.028 21.8226 19.6408 21.7324C20.3232 21.631 21.7418 20.8742 22.0379 20.0445C22.334 19.2149 22.334 18.504 22.2453 18.3551C22.1567 18.2063 21.9176 18.116 21.5645 17.9387Z" fill="#A2A2A2"/>
</svg>
